<svg width="292" height="144" xmlns="http://www.w3.org/2000/svg">
 <!-- Created with Method Draw - http://github.com/duopixel/Method-Draw/ -->

 <g>
  <title>background</title>
  <rect x="-1" y="-1" width="294" height="146" id="canvas_background" fill="#fff"/>
  <g id="canvasGrid" display="none">
   <rect id="svg_2" width="100%" height="100%" x="0" y="0" stroke-width="0" fill="url(#gridpattern)"/>
  </g>
 </g>
 <g>
  <title>Layer 1</title>
  <rect fill="#ff9838" stroke="#000" stroke-width="1.5" x="2.13887" y="4.43858" width="70" height="67" id="svg_1"/>
  <rect fill="#7f7f7f" stroke="#000" stroke-width="1.5" x="74.36112" y="4.35526" width="70" height="67" id="svg_3"/>
  <rect fill="#7f7f7f" stroke="#000" stroke-width="1.5" x="147.97104" y="4.43858" width="70" height="67" id="svg_4"/>
  <rect fill="#7f7f7f" stroke="#000" stroke-width="1.5" x="220.88713" y="4.43858" width="70" height="67" id="svg_5"/>
  <rect fill="#7f7f7f" stroke="#000" stroke-width="1.5" x="1.44444" y="74.5769" width="70" height="67" id="svg_6"/>
  <rect fill="#7f7f7f" stroke="#000" stroke-width="1.5" x="74.36112" y="74.49359" width="70" height="67" id="svg_8"/>
  <rect fill="#7f7f7f" stroke="#000" stroke-width="1.5" x="147.97104" y="74.5769" width="70" height="67" id="svg_9"/>
  <rect fill="#7f7f7f" stroke="#000" stroke-width="1.5" x="220.88713" y="74.5769" width="70" height="67" id="svg_11"/>
  <text fill="#000000" stroke-width="0" stroke-opacity="null" x="149.44664" y="271.86004" id="svg_12" font-size="24" font-family="sans-serif" text-anchor="start" xml:space="preserve" transform="matrix(2.807323399923575,0,0,2.7958626817272427,-409.91087472696245,-699.0792900085788) " stroke="#000">С</text>
  <text fill="#000000" stroke-width="0" stroke-opacity="null" x="177.15173" y="271.86004" id="svg_13" font-size="24" font-family="sans-serif" text-anchor="start" xml:space="preserve" transform="matrix(2.807323399923575,0,0,2.7958626817272427,-408.52199697751945,-699.0792900085788) " stroke="#000">В</text>
  <text fill="#000000" stroke-width="0" stroke-opacity="null" x="200.89895" y="271.86004" id="svg_14" font-size="24" font-family="sans-serif" text-anchor="start" xml:space="preserve" transform="matrix(2.807323399923575,0,0,2.7958626817272427,-408.52199697751945,-699.0792900085788) " stroke="#000">О</text>
  <text fill="#000000" stroke-width="0" stroke-opacity="null" x="227.36721" y="271.86004" id="svg_15" font-size="24" font-family="sans-serif" text-anchor="start" xml:space="preserve" transform="matrix(2.807323399923575,0,0,2.7958626817272427,-408.52199697751945,-699.0792900085788) " stroke="#000">Я</text>
  <text fill="#000000" stroke-width="0" stroke-opacity="null" x="149.44664" y="296.44975" id="svg_16" font-size="24" font-family="sans-serif" text-anchor="start" xml:space="preserve" transform="matrix(2.807323399923575,0,0,2.7958626817272427,-409.91087472696245,-699.0792900085788) " stroke="#000">И</text>
  <text fill="#000000" stroke-width="0" stroke-opacity="null" x="177.89383" y="296.44975" id="svg_17" font-size="24" font-family="sans-serif" text-anchor="start" xml:space="preserve" transform="matrix(2.807323399923575,0,0,2.7958626817272427,-409.91087472696245,-699.0792900085788) " stroke="#000">Г</text>
  <text fill="#000000" stroke-width="0" stroke-opacity="null" x="203.86736" y="296.44975" id="svg_18" font-size="24" font-family="sans-serif" text-anchor="start" xml:space="preserve" transform="matrix(2.807323399923575,0,0,2.7958626817272427,-409.91087472696245,-699.0792900085788) " stroke="#000">Р</text>
  <text fill="#000000" stroke-width="0" stroke-opacity="null" x="228.60405" y="296.44975" id="svg_19" font-size="24" font-family="sans-serif" text-anchor="start" xml:space="preserve" transform="matrix(2.807323399923575,0,0,2.7958626817272427,-409.91087472696245,-699.0792900085788) " stroke="#000">А</text>
 </g>
</svg>
